<?xml version="1.0" standalone="no"?><!DOCTYPE svg PUBLIC "-//W3C//DTD SVG 1.1//EN" "http://www.w3.org/Graphics/SVG/1.1/DTD/svg11.dtd"><svg t="1572265035003" class="icon" viewBox="0 0 1024 1024" version="1.1" xmlns="http://www.w3.org/2000/svg" p-id="12109" xmlns:xlink="http://www.w3.org/1999/xlink" width="128" height="128"><defs><style type="text/css"></style></defs><path d="M341.333333 953.6H170.666667a42.666667 42.666667 0 0 1-42.666667-42.666667v-512a42.666667 42.666667 0 0 1 42.666667-42.666666h170.666666a42.666667 42.666667 0 0 1 42.666667 42.666666v512a42.666667 42.666667 0 0 1-42.666667 42.666667z m-128-85.333333h85.333334v-426.666667H213.333333z" p-id="12110"></path><path d="M682.666667 953.6H341.333333a42.666667 42.666667 0 0 1-42.666666-42.666667v-768a42.666667 42.666667 0 0 1 42.666666-42.666666h341.333334a42.666667 42.666667 0 0 1 42.666666 42.666666v768a42.666667 42.666667 0 0 1-42.666666 42.666667z m-298.666667-85.333333h256v-682.666667H384z" p-id="12111"></path><path d="M853.333333 953.6h-170.666666a42.666667 42.666667 0 0 1-42.666667-42.666667v-341.333333a42.666667 42.666667 0 0 1 42.666667-42.666667h170.666666a42.666667 42.666667 0 0 1 42.666667 42.666667v341.333333a42.666667 42.666667 0 0 1-42.666667 42.666667z m-128-85.333333h85.333334v-256h-85.333334z" p-id="12112"></path><path d="M896 953.6H128a42.666667 42.666667 0 0 1 0-85.333333h768a42.666667 42.666667 0 0 1 0 85.333333zM533.333333 825.6h-42.666666a21.333333 21.333333 0 0 1-21.333334-21.333333 21.333333 21.333333 0 0 1 21.333334-21.333334h42.666666a21.333333 21.333333 0 0 1 21.333334 21.333334 21.333333 21.333333 0 0 1-21.333334 21.333333zM533.333333 441.6h-42.666666a21.333333 21.333333 0 0 1-21.333334-21.333333 21.333333 21.333333 0 0 1 21.333334-21.333334h42.666666a21.333333 21.333333 0 0 1 21.333334 21.333334 21.333333 21.333333 0 0 1-21.333334 21.333333zM533.333333 313.6h-42.666666a21.333333 21.333333 0 0 1-21.333334-21.333333 21.333333 21.333333 0 0 1 21.333334-21.333334h42.666666a21.333333 21.333333 0 0 1 21.333334 21.333334 21.333333 21.333333 0 0 1-21.333334 21.333333zM533.333333 569.6h-42.666666a21.333333 21.333333 0 0 1-21.333334-21.333333 21.333333 21.333333 0 0 1 21.333334-21.333334h42.666666a21.333333 21.333333 0 0 1 21.333334 21.333334 21.333333 21.333333 0 0 1-21.333334 21.333333zM533.333333 697.6h-42.666666a21.333333 21.333333 0 0 1-21.333334-21.333333 21.333333 21.333333 0 0 1 21.333334-21.333334h42.666666a21.333333 21.333333 0 0 1 21.333334 21.333334 21.333333 21.333333 0 0 1-21.333334 21.333333z" p-id="12113"></path></svg>