<?xml version="1.0" standalone="no"?><!DOCTYPE svg PUBLIC "-//W3C//DTD SVG 1.1//EN" "http://www.w3.org/Graphics/SVG/1.1/DTD/svg11.dtd"><svg t="1572265213584" class="icon" viewBox="0 0 1024 1024" version="1.1" xmlns="http://www.w3.org/2000/svg" p-id="12804" xmlns:xlink="http://www.w3.org/1999/xlink" width="128" height="128"><defs><style type="text/css"></style></defs><path d="M0 287.073103h88.275862v441.379311h-88.275862z" p-id="12805"></path><path d="M512.353103 563.376552L0 287.073103 512.353103 10.946207l512.353104 276.303448L512.353103 563.376552zM186.085517 287.073103L512.353103 463.095172l326.267587-175.845517L512.353103 111.227586l-326.267586 175.845517z" p-id="12806"></path><path d="M512.353103 1013.053793c-69.737931 0-139.475862-13.947586-205.85931-42.01931-130.648276-55.084138-165.428966-118.642759-168.96-125.704828l-4.766896-9.180689V452.325517L512.353103 652.182069l379.586207-199.856552v383.646897l-4.590344 9.357241c-3.531034 7.062069-38.311724 70.62069-168.96 125.704828A528.984276 528.984276 0 0 1 512.353103 1013.053793zM221.042759 811.961379c11.122759 13.241379 43.961379 45.726897 119.702069 77.682759 110.697931 46.609655 232.518621 46.609655 343.216551 0 75.211034-31.602759 108.049655-64.088276 119.702069-77.85931V598.686897L512.353103 751.933793l-291.310344-153.246896v213.274482z" p-id="12807"></path></svg>