<?xml version="1.0" standalone="no"?><!DOCTYPE svg PUBLIC "-//W3C//DTD SVG 1.1//EN" "http://www.w3.org/Graphics/SVG/1.1/DTD/svg11.dtd"><svg t="1572921647116" class="icon" viewBox="0 0 1024 1024" version="1.1" xmlns="http://www.w3.org/2000/svg" p-id="5353" xmlns:xlink="http://www.w3.org/1999/xlink" width="128" height="128"><defs><style type="text/css"></style></defs><path d="M977.454545 1024 46.545455 1024C20.829091 1024 0 1003.147636 0 977.454545 0 951.738182 20.829091 930.909091 46.545455 930.909091L46.545455 46.545455C46.545455 20.829091 67.374545 0 93.090909 0L558.545455 0C584.261818 0 605.090909 20.829091 605.090909 46.545455L605.090909 279.272727 930.909091 279.272727C956.625455 279.272727 977.454545 300.101818 977.454545 325.818182L977.454545 930.909091C1003.170909 930.909091 1024 951.738182 1024 977.454545 1024 1003.147636 1003.170909 1024 977.454545 1024ZM512 139.636364C512 113.92 491.170909 93.090909 465.454545 93.090909L186.181818 93.090909C160.465455 93.090909 139.636364 113.92 139.636364 139.636364L139.636364 884.363636C139.636364 910.08 160.465455 930.909091 186.181818 930.909091L465.454545 930.909091C491.170909 930.909091 512 910.08 512 884.363636L512 139.636364ZM884.363636 418.909091C884.363636 393.192727 863.534545 372.363636 837.818182 372.363636L651.636364 372.363636C625.92 372.363636 605.090909 393.192727 605.090909 418.909091L605.090909 884.363636C605.090909 910.08 625.92 930.909091 651.636364 930.909091L837.818182 930.909091C863.534545 930.909091 884.363636 910.08 884.363636 884.363636L884.363636 418.909091ZM814.545455 884.363636 674.909091 884.363636C649.192727 884.363636 628.363636 863.511273 628.363636 837.818182 628.363636 812.101818 649.192727 791.272727 674.909091 791.272727L814.545455 791.272727C840.261818 791.272727 861.090909 812.101818 861.090909 837.818182 861.090909 863.511273 840.261818 884.363636 814.545455 884.363636ZM814.545455 698.181818 674.909091 698.181818C649.192727 698.181818 628.363636 677.352727 628.363636 651.636364 628.363636 625.92 649.192727 605.090909 674.909091 605.090909L814.545455 605.090909C840.261818 605.090909 861.090909 625.92 861.090909 651.636364 861.090909 677.352727 840.261818 698.181818 814.545455 698.181818ZM814.545455 512 674.909091 512C649.192727 512 628.363636 491.147636 628.363636 465.454545 628.363636 439.738182 649.192727 418.909091 674.909091 418.909091L814.545455 418.909091C840.261818 418.909091 861.090909 439.738182 861.090909 465.454545 861.090909 491.147636 840.261818 512 814.545455 512ZM442.181818 837.818182 209.454545 837.818182C183.738182 837.818182 162.909091 816.989091 162.909091 791.272727 162.909091 765.556364 183.738182 744.727273 209.454545 744.727273L442.181818 744.727273C467.898182 744.727273 488.727273 765.556364 488.727273 791.272727 488.727273 816.989091 467.898182 837.818182 442.181818 837.818182ZM442.181818 651.636364 209.454545 651.636364C183.738182 651.636364 162.909091 630.784 162.909091 605.090909 162.909091 579.374545 183.738182 558.545455 209.454545 558.545455L442.181818 558.545455C467.898182 558.545455 488.727273 579.374545 488.727273 605.090909 488.727273 630.784 467.898182 651.636364 442.181818 651.636364ZM442.181818 465.454545 209.454545 465.454545C183.738182 465.454545 162.909091 444.625455 162.909091 418.909091 162.909091 393.192727 183.738182 372.363636 209.454545 372.363636L442.181818 372.363636C467.898182 372.363636 488.727273 393.192727 488.727273 418.909091 488.727273 444.625455 467.898182 465.454545 442.181818 465.454545ZM442.181818 279.272727 209.454545 279.272727C183.738182 279.272727 162.909091 258.420364 162.909091 232.727273 162.909091 207.010909 183.738182 186.181818 209.454545 186.181818L442.181818 186.181818C467.898182 186.181818 488.727273 207.010909 488.727273 232.727273 488.727273 258.420364 467.898182 279.272727 442.181818 279.272727Z" p-id="5354"></path></svg>