<?xml version="1.0" standalone="no"?><!DOCTYPE svg PUBLIC "-//W3C//DTD SVG 1.1//EN" "http://www.w3.org/Graphics/SVG/1.1/DTD/svg11.dtd"><svg t="1572264973356" class="icon" viewBox="0 0 1024 1024" version="1.1" xmlns="http://www.w3.org/2000/svg" p-id="11909" xmlns:xlink="http://www.w3.org/1999/xlink" width="128" height="128"><defs><style type="text/css"></style></defs><path d="M1014.2 967.9 841.8 795.4C915.4 711.1 960 600.7 960 480 960 214.9 745.1 0 480 0S0 214.9 0 480s214.9 480 480 480c121.3 0 232.1-45 316.6-119.2L969 1013.1c6.2 6.2 14.4 9.4 22.6 9.4s16.4-3.1 22.6-9.4C1026.7 1000.6 1026.7 980.4 1014.2 967.9zM96.7 641.9C75 590.7 64 536.2 64 480s11-110.7 32.7-161.9c20.9-49.5 51-94 89.2-132.2s82.7-68.2 132.3-89.2C369.3 75 423.8 64 480 64c56.2 0 110.7 11 161.9 32.7 49.5 20.9 94 51 132.3 89.2s68.2 82.7 89.2 132.2C885 369.3 896 423.8 896 480s-11 110.7-32.7 161.9c-16.1 38.2-37.7 73.3-64.2 104.9-18-57.7-51.4-109.8-97.3-150.6-28.5-25.3-60.7-45.3-95.3-59.4C665.4 496.5 704 428.8 704 352c0-123.7-100.3-224-224-224S256 228.3 256 352c0 76.7 38.6 144.5 97.5 184.8-35.2 14.4-68 34.9-96.8 60.8-45.2 40.6-78 92.2-95.8 149.2C134.3 715.2 112.8 680.1 96.7 641.9zM480 512c-42.7 0-82.9-16.6-113.1-46.9C336.6 434.9 320 394.7 320 352s16.6-82.9 46.9-113.1C397.1 208.6 437.3 192 480 192s82.9 16.6 113.1 46.9C623.4 269.1 640 309.3 640 352s-16.6 82.9-46.9 113.1C562.9 495.4 522.7 512 480 512zM480 896c-56.2 0-110.7-11-161.9-32.7-37.9-16-72.9-37.4-104.3-63.7C236 671.1 347.7 576 480 576c131.7 0 244 95.3 266.2 223.7-31.5 26.3-66.4 47.6-104.3 63.7C590.7 885 536.2 896 480 896z" p-id="11910"></path></svg>