<?xml version="1.0" standalone="no"?><!DOCTYPE svg PUBLIC "-//W3C//DTD SVG 1.1//EN" "http://www.w3.org/Graphics/SVG/1.1/DTD/svg11.dtd"><svg t="1571814353427" class="icon" viewBox="0 0 1024 1024" version="1.1" xmlns="http://www.w3.org/2000/svg" p-id="3290" xmlns:xlink="http://www.w3.org/1999/xlink" width="128" height="128"><defs><style type="text/css"></style></defs><path d="M686.752 540.512c-0.192 0-0.352 0.096-0.544 0.096a21.344 21.344 0 1 1-1.312-42.624 97.28 97.28 0 0 0 73.28-94.08 97.28 97.28 0 0 0-62.144-90.624 198.72 198.72 0 0 0-25.536-42.56 133.504 133.504 0 0 1 118.56 94.688 133.824 133.824 0 0 1-54.848 150.272 199.552 199.552 0 0 1 124.768 184 18.272 18.272 0 0 1-36.544 0c-0.128-80.384-58.88-146.528-135.68-159.168z" p-id="3291"></path><path d="M327.168 540.512c0.192 0 0.352 0.096 0.544 0.096a21.344 21.344 0 1 0 1.312-42.624 97.28 97.28 0 0 1-73.28-94.08A97.28 97.28 0 0 1 317.888 313.28a198.72 198.72 0 0 1 25.536-42.56 133.504 133.504 0 0 0-118.56 94.688 133.824 133.824 0 0 0 54.848 150.272 199.552 199.552 0 0 0-124.768 184 18.272 18.272 0 0 0 36.544 0c0.096-80.384 58.88-146.528 135.68-159.168zM488.672 656.32c-14.272 29.792-32.736 72-32.736 90.72 0 26.464 48.96 44.896 48.96 44.896s48.928-18.432 48.928-44.896c0-18.72-18.464-60.96-32.736-90.72-10.208 5.12-22.208 5.12-32.416 0zM504.832 604.48a19.456 19.456 0 1 0 0.064 0h-0.064zM655.232 571.904a22.752 22.752 0 1 0-27.648 36.224c50.304 38.144 79.808 101.856 79.584 164.992 0 12.544 10.176 26.88 22.752 26.88h0.032c12.576 0 22.752-14.368 22.752-26.912 0.256-77.344-35.84-154.496-97.472-201.184z" p-id="3292"></path><path d="M672.32 399.2a167.456 167.456 0 0 0-167.456-167.456 167.264 167.264 0 0 0-91.872 307.168 249.504 249.504 0 0 0-155.968 229.984 22.848 22.848 0 0 0 45.696 0 202.528 202.528 0 0 1 202.176-202.272 167.392 167.392 0 0 0 167.424-167.424z m-289.28 0.032a121.888 121.888 0 1 1 243.776 0.064 121.888 121.888 0 0 1-243.776-0.064z" p-id="3293"></path></svg>