<?xml version="1.0" standalone="no"?><!DOCTYPE svg PUBLIC "-//W3C//DTD SVG 1.1//EN" "http://www.w3.org/Graphics/SVG/1.1/DTD/svg11.dtd"><svg t="1572421862388" class="icon" viewBox="0 0 1024 1024" version="1.1" xmlns="http://www.w3.org/2000/svg" p-id="3936" xmlns:xlink="http://www.w3.org/1999/xlink" width="128" height="128"><defs><style type="text/css"></style></defs><path d="M513.344 562.496l-5.696-11.072c-10.944-20.928-22.016-41.792-33.152-62.656a2392.768 2392.768 0 0 0-43.648-78.272c-2.24-3.776-4.736-7.424-6.72-11.264a28.096 28.096 0 0 1-2.56-10.176 25.984 25.984 0 0 1 21.312-26.24 26.112 26.112 0 0 1 26.048 11.776c4.288 6.912 8.384 13.888 12.544 20.928 19.584 34.304 38.336 69.12 56.768 104.128 5.184-10.368 10.88-20.544 17.088-30.336a273.856 273.856 0 0 1 90.432-89.408c7.808-4.608 15.808-8.768 24-12.544a45.248 45.248 0 0 1 15.168-4.864 26.944 26.944 0 0 1 15.68 4.416 25.92 25.92 0 0 1 8 33.536 27.328 27.328 0 0 1-9.92 9.92c-4.096 2.048-8.32 3.904-12.48 5.824a219.648 219.648 0 0 0-40.064 25.856c-39.36 32.512-64.576 77.76-80.64 125.824l-0.32 0.832a466.176 466.176 0 0 0-12.544 45.76 544.128 544.128 0 0 0-6.4 33.856 723.52 723.52 0 0 0-8.448 101.376c-0.512 27.136 0.256 54.336 1.984 81.408 2.304 34.688 6.016 69.44 12.224 103.68l0.32 2.368a27.456 27.456 0 0 1-1.664 11.584 25.856 25.856 0 0 1-37.376 12.352 26.368 26.368 0 0 1-11.072-14.848c-1.088-4.544-1.792-9.216-2.56-13.824a1067.84 1067.84 0 0 1-13.056-149.824c-0.448-26.112 0.128-52.224 1.92-78.272l-2.24-4.992a114.88 114.88 0 0 0-35.904-42.624 94.464 94.464 0 0 0-10.496-6.464c-2.688-1.472-5.44-2.688-7.872-4.416a25.984 25.984 0 0 1-9.088-12.544 25.728 25.728 0 0 1 23.04-33.664h1.728c7.168 0.256 13.056 3.584 19.264 7.04 9.408 5.376 18.304 11.712 26.432 18.88l4.16 3.712a546.56 546.56 0 0 1 15.808-66.752zM516.48 59.072a339.904 339.904 0 0 1 122.56 25.024 344.704 344.704 0 0 1 105.664 68.736c24.704 23.36 45.952 50.304 63.04 79.68 16.832 28.8 29.568 59.904 37.952 92.096a374.784 374.784 0 0 1-16.128 235.84 357.056 357.056 0 0 1-148.544 171.52l-2.24 1.152a26.88 26.88 0 0 1-17.152 1.664 25.92 25.92 0 0 1-16.832-35.84 27.456 27.456 0 0 1 7.936-9.6c6.208-4.096 12.608-7.808 18.816-11.904 17.472-12.032 33.792-25.664 48.512-41.024a313.28 313.28 0 0 0 76.672-139.328c14.016-55.808 12.8-115.392-3.648-170.56a312.384 312.384 0 0 0-63.552-115.648 298.048 298.048 0 0 0-90.368-70.464 283.2 283.2 0 0 0-308.416 35.264c-30.016 24.576-55.168 55.04-73.92 89.024a322.368 322.368 0 0 0-28.544 236.224c7.232 27.392 18.176 53.76 32.512 78.208 18.048 30.784 41.408 58.496 68.864 81.216 11.2 9.28 23.104 17.6 35.456 25.216l2.048 1.408c4.608 3.84 8 8.512 9.408 14.464a25.792 25.792 0 0 1-24 31.488 28.608 28.608 0 0 1-12.16-2.56 359.36 359.36 0 0 1-152.96-188.288 374.72 374.72 0 0 1-6.848-225.984A359.872 359.872 0 0 1 285.44 147.072a346.048 346.048 0 0 1 99.52-62.976A339.904 339.904 0 0 1 507.52 59.072h8.96z" fill="#ffffff" p-id="3937"></path></svg>