<?xml version="1.0" standalone="no"?><!DOCTYPE svg PUBLIC "-//W3C//DTD SVG 1.1//EN" "http://www.w3.org/Graphics/SVG/1.1/DTD/svg11.dtd"><svg t="1572856897498" class="icon" viewBox="0 0 1024 1024" version="1.1" xmlns="http://www.w3.org/2000/svg" p-id="2328" xmlns:xlink="http://www.w3.org/1999/xlink" width="128" height="128"><defs><style type="text/css"></style></defs><path d="M937.668466 266.25075l0.012798 491.511298-425.681264 245.74925 0.012797-491.511298 425.655669-245.74925z" p-id="2329"></path><path d="M512 1024a20.475905 20.475905 0 0 1-20.475905-20.475905V512a20.475905 20.475905 0 0 1 10.237953-17.737253l425.655668-245.710857a20.475905 20.475905 0 0 1 30.713858 17.737252v491.472906a20.475905 20.475905 0 0 1-10.237953 17.737252L522.237952 1021.235753a20.475905 20.475905 0 0 1-10.237952 2.764247z m20.475905-500.175165v444.224755l384.716656-222.112377V301.712458z" p-id="2330"></path><path d="M512 1024a20.475905 20.475905 0 0 1-10.237952-2.75145L76.093581 775.524895a20.475905 20.475905 0 0 1-10.237952-17.737253V266.186763a20.475905 20.475905 0 0 1 30.713857-17.724455l425.668466 245.710857a20.475905 20.475905 0 0 1 10.237953 17.737253v491.613677a20.475905 20.475905 0 0 1-20.475905 20.475905zM106.807439 745.924415l384.716656 222.125175V523.824835L106.807439 301.69966z" p-id="2331"></path><path d="M512.012797 532.475905a20.475905 20.475905 0 0 1-10.237952-2.75145L76.093581 283.962408a20.475905 20.475905 0 0 1 0-35.461708l425.681264-245.710858a20.475905 20.475905 0 0 1 20.475905 0l425.642871 245.774845a20.475905 20.475905 0 0 1 0 35.474505l-425.655669 245.710858a20.475905 20.475905 0 0 1-10.225155 2.725855zM127.283343 266.186763l384.729454 222.163567 384.70386-222.09958L512.012797 44.125575z" p-id="2332"></path></svg>