<?xml version="1.0" standalone="no"?><!DOCTYPE svg PUBLIC "-//W3C//DTD SVG 1.1//EN" "http://www.w3.org/Graphics/SVG/1.1/DTD/svg11.dtd"><svg t="1571716531952" class="icon" viewBox="0 0 1024 1024" version="1.1" xmlns="http://www.w3.org/2000/svg" p-id="618" width="128" height="128" xmlns:xlink="http://www.w3.org/1999/xlink"><defs><style type="text/css"></style></defs><path d="M658.716526 152.61384l0-25.572422c0-35.610032-32.689517-63.931055-69.831438-63.931055L425.241031 63.110363c-37.139875 0-60.609403 28.322046-60.609403 63.931055l0 25.572422-51.144844 0 0 115.076922L709.86137 267.690762 709.86137 152.61384 658.716526 152.61384zM402.991284 152.61384l0-25.572422c0-17.801435 27.287483-26.638707 45.855374-26.638707l125.659955 0c40.61707 0 45.851281 26.638707 45.851281 26.638707l0 25.572422L402.991284 152.61384zM735.434815 740.782613 287.914362 740.782613l0 38.358633 447.520453 0L735.434815 740.782613zM799.36587 178.186262l-51.144844 0 0 38.358633 38.358633 0c18.295692 0 51.144844 20.37198 51.144844 38.358633l0.663102 616.228853c0 17.98256-31.962969 49.724495-50.262754 49.724495L235.227396 920.856875c-18.304901 0-50.261731-31.741935-50.261731-49.724495L184.965665 262.008342c0-17.986653 20.711717-45.463448 39.017642-45.463448l51.144844 0 0-38.358633-63.931055 0c-36.58115 0-63.933101 27.984355-63.933101 63.933101l0 650.938376c0 35.94977 29.671787 65.092507 66.25396 65.092507L793.260825 958.150246c36.595476 0 82.824357-29.142737 82.824357-65.092507L876.085182 242.119363C876.085182 181.975565 799.36587 178.186262 799.36587 178.186262zM287.914362 612.920504l0 38.358633 447.520453 0 0-38.358633L287.914362 612.920504zM287.914362 472.27116l0 38.358633 447.520453 0 0-38.358633L287.914362 472.27116zM735.434815 331.621816 287.914362 331.621816l0 38.358633 447.520453 0L735.434815 331.621816z" p-id="619"></path></svg>