<?xml version="1.0" standalone="no"?><!DOCTYPE svg PUBLIC "-//W3C//DTD SVG 1.1//EN" "http://www.w3.org/Graphics/SVG/1.1/DTD/svg11.dtd"><svg t="1572264581849" class="icon" viewBox="0 0 1024 1024" version="1.1" xmlns="http://www.w3.org/2000/svg" p-id="11413" xmlns:xlink="http://www.w3.org/1999/xlink" width="128" height="128"><defs><style type="text/css"></style></defs><path d="M469.09 960H214.67C144.27 960 87 902.73 87 832.33V193.67C87 123.27 144.27 66 214.67 66h538.67C823.73 66 881 123.27 881 193.67v254.54c0 17.67-14.33 32-32 32s-32-14.33-32-32V193.67c0-35.11-28.56-63.67-63.67-63.67H214.67c-35.11 0-63.67 28.56-63.67 63.67v638.67c0 35.11 28.56 63.67 63.67 63.67h254.42c17.67 0 32 14.33 32 32s-14.33 31.99-32 31.99z"  p-id="11414"></path><path d="M674.29 902.31c-108.07 0-196-87.92-196-196s87.93-196 196-196c108.08 0 196 87.92 196 196s-87.93 196-196 196z m0-328c-72.79 0-132 59.21-132 132s59.21 132 132 132 132-59.21 132-132-59.22-132-132-132zM565.03 320.03H245.04c-17.67 0-32-14.33-32-32s14.33-32 32-32h319.99c17.67 0 32 14.33 32 32 0 17.68-14.32 32-32 32zM411.47 448.91h-166.4c-17.67 0-32-14.33-32-32s14.33-32 32-32h166.4c17.67 0 32 14.33 32 32s-14.33 32-32 32z" p-id="11415"></path><path d="M885.05 948.74l-90.23-90.23c-12.45-12.45-12.45-32.64 0-45.09 12.45-12.45 32.64-12.45 45.09 0l90.23 90.23c12.45 12.45 12.45 32.64 0 45.09-12.45 12.45-32.64 12.45-45.09 0z" p-id="11416"></path></svg>