<?xml version="1.0" standalone="no"?><!DOCTYPE svg PUBLIC "-//W3C//DTD SVG 1.1//EN" "http://www.w3.org/Graphics/SVG/1.1/DTD/svg11.dtd"><svg t="1571814504635" class="icon" viewBox="0 0 1024 1024" version="1.1" xmlns="http://www.w3.org/2000/svg" p-id="1836" xmlns:xlink="http://www.w3.org/1999/xlink" width="128" height="128"><defs><style type="text/css"></style></defs><path d="M880.514012 124.087882c10.998926 0 19.998047 8.999121 19.998047 19.998047v735.928132c0 10.998926-8.999121 19.998047-19.998047 19.998047h-735.928132c-10.998926 0-19.998047-8.999121-19.998047-19.998047v-735.928132c0-10.998926 8.999121-19.998047 19.998047-19.998047h735.928132m0-59.994141h-735.928132c-44.195684 0-79.992188 35.796504-79.992188 79.992188v735.928132c0 44.195684 35.796504 79.992188 79.992188 79.992188h735.928132c44.195684 0 79.992188-35.796504 79.992189-79.992188v-735.928132c0-44.195684-35.796504-79.992188-79.992189-79.992188z" p-id="1837"></path><path d="M64.593692 244.076164h119.988282v59.994142h-119.988282z" p-id="1838"></path><path d="M64.593692 720.029685h119.988282v59.994141h-119.988282z" p-id="1839"></path><path d="M688.53276 276.17303h-48.795234L512.949907 503.150864l-126.687628-226.977834h-48.795235l139.186408 241.576409H370.463822v26.997363h121.388146v69.293233H370.463822v27.097354h121.388146v106.18963h42.295869V641.137389h121.388146v-27.097354H534.147837v-69.293233h121.388146v-26.997363H549.246363z" p-id="1840"></path></svg>