<?xml version="1.0" standalone="no"?><!DOCTYPE svg PUBLIC "-//W3C//DTD SVG 1.1//EN" "http://www.w3.org/Graphics/SVG/1.1/DTD/svg11.dtd"><svg t="1572230780257" class="icon" viewBox="0 0 1024 1024" version="1.1" xmlns="http://www.w3.org/2000/svg" p-id="4494" width="128" height="128" xmlns:xlink="http://www.w3.org/1999/xlink"><defs><style type="text/css"></style></defs><path d="M426.666667 213.333333v213.333334H213.333333V213.333333h213.333334m0-85.333333H213.333333a85.333333 85.333333 0 0 0-85.333333 85.333333v213.333334a85.333333 85.333333 0 0 0 85.333333 85.333333h298.666667V213.333333a85.333333 85.333333 0 0 0-85.333333-85.333333zM853.333333 213.333333v213.333334h-213.333333V213.333333h213.333333m0-85.333333h-213.333333a85.333333 85.333333 0 0 0-85.333333 85.333333v298.666667h298.666666a85.333333 85.333333 0 0 0 85.333334-85.333333V213.333333a85.333333 85.333333 0 0 0-85.333334-85.333333zM426.666667 640v213.333333H213.333333v-213.333333h213.333334m85.333333-85.333333H213.333333a85.333333 85.333333 0 0 0-85.333333 85.333333v213.333333a85.333333 85.333333 0 0 0 85.333333 85.333334h213.333334a85.333333 85.333333 0 0 0 85.333333-85.333334v-298.666666zM853.333333 640v213.333333h-213.333333v-213.333333h213.333333m0-85.333333h-298.666666v298.666666a85.333333 85.333333 0 0 0 85.333333 85.333334h213.333333a85.333333 85.333333 0 0 0 85.333334-85.333334v-213.333333a85.333333 85.333333 0 0 0-85.333334-85.333333z" p-id="4495"></path></svg>