<?xml version="1.0" standalone="no"?><!DOCTYPE svg PUBLIC "-//W3C//DTD SVG 1.1//EN" "http://www.w3.org/Graphics/SVG/1.1/DTD/svg11.dtd"><svg t="1572423801379" class="icon" viewBox="0 0 1024 1024" version="1.1" xmlns="http://www.w3.org/2000/svg" p-id="5001" xmlns:xlink="http://www.w3.org/1999/xlink" width="128" height="128"><defs><style type="text/css"></style></defs><path d="M1024 440.593048c0-19.728047-16.011169-35.739215-35.739215-35.739215s-35.739215 16.011169-35.739215 35.739215c0 203.570571-197.566383 369.114617-440.593048 369.114617-0.571827 0-1.143655 0.142957-1.858439 0.142957-7.862627-0.285914-15.868212 1.858439-22.587184 7.004886l-133.378752 100.069803 0-95.20927c0-1.715482-0.285914-3.430965-0.571827-5.146447 2.71618-16.440039-6.433059-33.165992-22.587184-39.313137C173.406673 717.500489 71.478431 585.408348 71.478431 440.593048c0-19.728047-16.011169-35.739215-35.739215-35.739215-19.728047 0-35.739215 16.011169-35.739215 35.739215 0 167.402485 110.21974 319.651543 282.768672 393.989111l0 153.678626c0 13.580902 7.576714 25.875192 19.728047 32.022337 5.00349 2.573224 10.578808 3.716878 16.011169 3.716878 7.576714 0 15.153427-2.430267 21.443529-7.147843l181.269301-135.951975C799.271813 876.754433 1024 680.903532 1024 440.593048L1024 440.593048z" p-id="5002" fill="#ffffff"></path><path d="M44.17367 355.104844c18.441435 6.718972 39.027223-2.859137 45.746196-21.443529 55.753176-154.393411 229.302806-262.182884 421.722742-262.182884 193.277677 0 366.970264 108.361301 422.294569 263.612453 5.146447 14.5816 19.013263 23.730839 33.594862 23.730839 4.002792 0 8.005584-0.714784 12.008376-2.144353 18.584392-6.576016 28.305459-27.018847 21.729443-45.603239C934.937875 125.087254 738.229234 0 511.642608 0c-225.585928 0-422.008656 124.37247-488.912467 309.358649C16.011169 327.943041 25.732235 348.385872 44.17367 355.104844L44.17367 355.104844z" p-id="5003" fill="#ffffff"></path></svg>